# MagicaVoxel @ Ephtracy

# group
o planes_5

# material
mtllib PlaneBlade.mtl
usemtl palette

# normals
vn -1 0 0
vn 1 0 0
vn 0 0 1
vn 0 0 -1
vn 0 -1 0
vn 0 1 0

# texcoords
vt 0.169922 0.5
vt 0.177734 0.5
vt 0.978516 0.5

# verts
v -0.5 0.2 -1.1
v -0.5 0.2 -1.2
v -0.5 0.3 -1.1
v -0.5 0.3 -1.2
v 0 0.2 -1.2
v 0 0.2 -1.3
v 0 0.3 -1.2
v 0 0.3 -1.3
v 0.1 0.2 -1.2
v 0.1 0.2 -1.3
v 0.1 0.3 -1.2
v 0.1 0.3 -1.3
v 0.6 0.2 -1.1
v 0.6 0.2 -1.2
v 0.6 0.3 -1.1
v 0.6 0.3 -1.2
v -0.5 0.2 -1.1
v -0.5 0.3 -1.1
v -0.4 0.2 -1.1
v -0.4 0.3 -1.1
v 0.5 0.2 -1.1
v 0.5 0.3 -1.1
v 0.6 0.2 -1.1
v 0.6 0.3 -1.1
v -0.5 0.2 -1.2
v -0.5 0.3 -1.2
v -0.4 0.2 -1.2
v -0.4 0.3 -1.2
v 0 0.2 -1.2
v 0 0.3 -1.2
v 0.1 0.2 -1.2
v 0.1 0.3 -1.2
v 0.5 0.2 -1.2
v 0.5 0.3 -1.2
v 0.6 0.2 -1.2
v 0.6 0.3 -1.2
v 0 0.2 -1.3
v 0 0.3 -1.3
v 0.1 0.2 -1.3
v 0.1 0.3 -1.3
v -0.5 0.2 -1.1
v -0.4 0.2 -1.1
v 0.5 0.2 -1.1
v 0.6 0.2 -1.1
v -0.5 0.2 -1.2
v -0.4 0.2 -1.2
v 0 0.2 -1.2
v 0.1 0.2 -1.2
v 0.5 0.2 -1.2
v 0.6 0.2 -1.2
v 0 0.2 -1.3
v 0.1 0.2 -1.3
v -0.5 0.3 -1.1
v -0.4 0.3 -1.1
v 0.5 0.3 -1.1
v 0.6 0.3 -1.1
v -0.5 0.3 -1.2
v -0.4 0.3 -1.2
v 0 0.3 -1.2
v 0.1 0.3 -1.2
v 0.5 0.3 -1.2
v 0.6 0.3 -1.2
v 0 0.3 -1.3
v 0.1 0.3 -1.3

# faces
f 3/2/1 2/2/1 1/2/1
f 4/2/1 2/2/1 3/2/1
f 7/1/1 6/1/1 5/1/1
f 8/1/1 6/1/1 7/1/1
f 9/1/2 10/1/2 11/1/2
f 11/1/2 10/1/2 12/1/2
f 13/2/2 14/2/2 15/2/2
f 15/2/2 14/2/2 16/2/2
f 19/2/3 18/2/3 17/2/3
f 20/2/3 18/2/3 19/2/3
f 21/3/3 20/3/3 19/3/3
f 22/3/3 20/3/3 21/3/3
f 23/2/3 22/2/3 21/2/3
f 24/2/3 22/2/3 23/2/3
f 25/2/4 26/2/4 27/2/4
f 27/2/4 26/2/4 28/2/4
f 27/3/4 28/3/4 29/3/4
f 29/3/4 28/3/4 30/3/4
f 31/3/4 32/3/4 33/3/4
f 33/3/4 32/3/4 34/3/4
f 33/2/4 34/2/4 35/2/4
f 35/2/4 34/2/4 36/2/4
f 37/1/4 38/1/4 39/1/4
f 39/1/4 38/1/4 40/1/4
f 45/2/5 42/2/5 41/2/5
f 46/3/5 43/3/5 42/3/5
f 46/2/5 42/2/5 45/2/5
f 47/3/5 43/3/5 46/3/5
f 48/3/5 43/3/5 47/3/5
f 49/2/5 44/2/5 43/2/5
f 49/3/5 43/3/5 48/3/5
f 50/2/5 44/2/5 49/2/5
f 51/1/5 48/1/5 47/1/5
f 52/1/5 48/1/5 51/1/5
f 53/2/6 54/2/6 57/2/6
f 54/3/6 55/3/6 58/3/6
f 57/2/6 54/2/6 58/2/6
f 58/3/6 55/3/6 59/3/6
f 59/3/6 55/3/6 60/3/6
f 55/2/6 56/2/6 61/2/6
f 60/3/6 55/3/6 61/3/6
f 61/2/6 56/2/6 62/2/6
f 59/1/6 60/1/6 63/1/6
f 63/1/6 60/1/6 64/1/6
