# MagicaVoxel @ Ephtracy

# group
o planes_5

# material
mtllib PlaneLeftWing.mtl
usemtl palette

# normals
vn -1 0 0
vn 1 0 0
vn 0 0 1
vn 0 0 -1
vn 0 -1 0
vn 0 1 0

# texcoords
vt 0.169922 0.5
vt 0.177734 0.5
vt 0.201172 0.5
vt 0.849609 0.5
vt 0.986328 0.5

# verts
v -1.5 0.1 -0.3
v -1.5 0.1 -0.5
v -1.5 0.2 -0.3
v -1.5 0.2 -0.5
v -1.4 0.1 -0.5
v -1.4 0.1 -0.6
v -1.4 0.2 -0.5
v -1.4 0.2 -0.6
v -1.1 0.1 -0.2
v -1.1 0.1 -0.3
v -1.1 0.2 -0.2
v -1.1 0.2 -0.3
v -0.5 0.1 -0.1
v -0.5 0.1 -0.2
v -0.5 0.2 -0.1
v -0.5 0.2 -0.2
v -0.3 0.1 -0.1
v -0.3 0.1 -0.6
v -0.3 0.2 -0.1
v -0.3 0.2 -0.6
v -0.5 0.1 -0.1
v -0.5 0.2 -0.1
v -0.3 0.1 -0.1
v -0.3 0.2 -0.1
v -1.1 0.1 -0.2
v -1.1 0.2 -0.2
v -1 0.1 -0.2
v -1 0.2 -0.2
v -0.9 0.1 -0.2
v -0.9 0.2 -0.2
v -0.8 0.1 -0.2
v -0.8 0.2 -0.2
v -0.7 0.1 -0.2
v -0.7 0.2 -0.2
v -0.5 0.1 -0.2
v -0.5 0.2 -0.2
v -1.5 0.1 -0.3
v -1.5 0.2 -0.3
v -1.4 0.1 -0.3
v -1.4 0.2 -0.3
v -1.3 0.1 -0.3
v -1.3 0.2 -0.3
v -1.1 0.1 -0.3
v -1.1 0.2 -0.3
v -1.5 0.1 -0.5
v -1.5 0.2 -0.5
v -1.4 0.1 -0.5
v -1.4 0.2 -0.5
v -1.4 0.1 -0.6
v -1.4 0.2 -0.6
v -1.3 0.1 -0.6
v -1.3 0.2 -0.6
v -1.1 0.1 -0.6
v -1.1 0.2 -0.6
v -1 0.1 -0.6
v -1 0.2 -0.6
v -0.9 0.1 -0.6
v -0.9 0.2 -0.6
v -0.8 0.1 -0.6
v -0.8 0.2 -0.6
v -0.7 0.1 -0.6
v -0.7 0.2 -0.6
v -0.3 0.1 -0.6
v -0.3 0.2 -0.6
v -0.5 0.1 -0.1
v -0.3 0.1 -0.1
v -1.1 0.1 -0.2
v -1 0.1 -0.2
v -0.9 0.1 -0.2
v -0.8 0.1 -0.2
v -0.7 0.1 -0.2
v -0.5 0.1 -0.2
v -1.5 0.1 -0.3
v -1.4 0.1 -0.3
v -1.3 0.1 -0.3
v -1.1 0.1 -0.3
v -0.9 0.1 -0.3
v -0.8 0.1 -0.3
v -0.7 0.1 -0.3
v -0.9 0.1 -0.4
v -0.8 0.1 -0.4
v -0.7 0.1 -0.4
v -1.5 0.1 -0.5
v -1.4 0.1 -0.5
v -0.9 0.1 -0.5
v -0.8 0.1 -0.5
v -0.7 0.1 -0.5
v -1.4 0.1 -0.6
v -1.3 0.1 -0.6
v -1.1 0.1 -0.6
v -1 0.1 -0.6
v -0.9 0.1 -0.6
v -0.8 0.1 -0.6
v -0.7 0.1 -0.6
v -0.3 0.1 -0.6
v -0.5 0.2 -0.1
v -0.3 0.2 -0.1
v -1.1 0.2 -0.2
v -1 0.2 -0.2
v -0.9 0.2 -0.2
v -0.8 0.2 -0.2
v -0.7 0.2 -0.2
v -0.5 0.2 -0.2
v -1.5 0.2 -0.3
v -1.4 0.2 -0.3
v -1.3 0.2 -0.3
v -1.1 0.2 -0.3
v -0.9 0.2 -0.3
v -0.8 0.2 -0.3
v -0.7 0.2 -0.3
v -0.9 0.2 -0.4
v -0.8 0.2 -0.4
v -0.7 0.2 -0.4
v -1.5 0.2 -0.5
v -1.4 0.2 -0.5
v -0.9 0.2 -0.5
v -0.8 0.2 -0.5
v -0.7 0.2 -0.5
v -1.4 0.2 -0.6
v -1.3 0.2 -0.6
v -1.1 0.2 -0.6
v -1 0.2 -0.6
v -0.9 0.2 -0.6
v -0.8 0.2 -0.6
v -0.7 0.2 -0.6
v -0.3 0.2 -0.6

# faces
f 3/3/1 2/3/1 1/3/1
f 4/3/1 2/3/1 3/3/1
f 7/2/1 6/2/1 5/2/1
f 8/2/1 6/2/1 7/2/1
f 11/1/1 10/1/1 9/1/1
f 12/1/1 10/1/1 11/1/1
f 15/4/1 14/4/1 13/4/1
f 16/4/1 14/4/1 15/4/1
f 17/4/2 18/4/2 19/4/2
f 19/4/2 18/4/2 20/4/2
f 23/4/3 22/4/3 21/4/3
f 24/4/3 22/4/3 23/4/3
f 27/1/3 26/1/3 25/1/3
f 28/1/3 26/1/3 27/1/3
f 29/4/3 28/4/3 27/4/3
f 30/4/3 28/4/3 29/4/3
f 31/1/3 30/1/3 29/1/3
f 32/1/3 30/1/3 31/1/3
f 33/5/3 32/5/3 31/5/3
f 34/5/3 32/5/3 33/5/3
f 35/4/3 34/4/3 33/4/3
f 36/4/3 34/4/3 35/4/3
f 39/3/3 38/3/3 37/3/3
f 40/3/3 38/3/3 39/3/3
f 41/2/3 40/2/3 39/2/3
f 42/2/3 40/2/3 41/2/3
f 43/4/3 42/4/3 41/4/3
f 44/4/3 42/4/3 43/4/3
f 45/3/4 46/3/4 47/3/4
f 47/3/4 46/3/4 48/3/4
f 49/2/4 50/2/4 51/2/4
f 51/2/4 50/2/4 52/2/4
f 51/4/4 52/4/4 53/4/4
f 53/4/4 52/4/4 54/4/4
f 53/1/4 54/1/4 55/1/4
f 55/1/4 54/1/4 56/1/4
f 55/4/4 56/4/4 57/4/4
f 57/4/4 56/4/4 58/4/4
f 57/5/4 58/5/4 59/5/4
f 59/5/4 58/5/4 60/5/4
f 59/1/4 60/1/4 61/1/4
f 61/1/4 60/1/4 62/1/4
f 61/4/4 62/4/4 63/4/4
f 63/4/4 62/4/4 64/4/4
f 72/4/5 66/4/5 65/4/5
f 76/1/5 68/1/5 67/1/5
f 77/4/5 69/4/5 68/4/5
f 77/1/5 70/1/5 69/1/5
f 78/5/5 71/5/5 70/5/5
f 78/1/5 70/1/5 77/1/5
f 79/4/5 72/4/5 71/4/5
f 79/5/5 71/5/5 78/5/5
f 80/4/5 77/4/5 68/4/5
f 80/5/5 78/5/5 77/5/5
f 81/1/5 79/1/5 78/1/5
f 81/5/5 78/5/5 80/5/5
f 82/4/5 72/4/5 79/4/5
f 82/1/5 79/1/5 81/1/5
f 83/3/5 74/3/5 73/3/5
f 84/2/5 75/2/5 74/2/5
f 84/3/5 74/3/5 83/3/5
f 85/1/5 81/1/5 80/1/5
f 85/4/5 80/4/5 68/4/5
f 86/5/5 82/5/5 81/5/5
f 86/1/5 81/1/5 85/1/5
f 87/4/5 72/4/5 82/4/5
f 87/5/5 82/5/5 86/5/5
f 88/2/5 75/2/5 84/2/5
f 89/4/5 76/4/5 75/4/5
f 89/2/5 75/2/5 88/2/5
f 90/1/5 68/1/5 76/1/5
f 90/4/5 76/4/5 89/4/5
f 91/4/5 85/4/5 68/4/5
f 91/1/5 68/1/5 90/1/5
f 92/5/5 86/5/5 85/5/5
f 92/4/5 85/4/5 91/4/5
f 93/1/5 87/1/5 86/1/5
f 93/5/5 86/5/5 92/5/5
f 94/4/5 72/4/5 87/4/5
f 94/1/5 87/1/5 93/1/5
f 95/4/5 66/4/5 72/4/5
f 95/4/5 72/4/5 94/4/5
f 96/4/6 97/4/6 103/4/6
f 98/1/6 99/1/6 107/1/6
f 99/4/6 100/4/6 108/4/6
f 100/1/6 101/1/6 108/1/6
f 101/5/6 102/5/6 109/5/6
f 108/1/6 101/1/6 109/1/6
f 102/4/6 103/4/6 110/4/6
f 109/5/6 102/5/6 110/5/6
f 99/4/6 108/4/6 111/4/6
f 108/5/6 109/5/6 111/5/6
f 109/1/6 110/1/6 112/1/6
f 111/5/6 109/5/6 112/5/6
f 110/4/6 103/4/6 113/4/6
f 112/1/6 110/1/6 113/1/6
f 104/3/6 105/3/6 114/3/6
f 105/2/6 106/2/6 115/2/6
f 114/3/6 105/3/6 115/3/6
f 111/1/6 112/1/6 116/1/6
f 99/4/6 111/4/6 116/4/6
f 112/5/6 113/5/6 117/5/6
f 116/1/6 112/1/6 117/1/6
f 113/4/6 103/4/6 118/4/6
f 117/5/6 113/5/6 118/5/6
f 115/2/6 106/2/6 119/2/6
f 106/4/6 107/4/6 120/4/6
f 119/2/6 106/2/6 120/2/6
f 107/1/6 99/1/6 121/1/6
f 120/4/6 107/4/6 121/4/6
f 99/4/6 116/4/6 122/4/6
f 121/1/6 99/1/6 122/1/6
f 116/5/6 117/5/6 123/5/6
f 122/4/6 116/4/6 123/4/6
f 117/1/6 118/1/6 124/1/6
f 123/5/6 117/5/6 124/5/6
f 118/4/6 103/4/6 125/4/6
f 124/1/6 118/1/6 125/1/6
f 103/4/6 97/4/6 126/4/6
f 125/4/6 103/4/6 126/4/6
